<svg width="25" height="26" viewBox="0 0 25 26" fill="none" xmlns="http://www.w3.org/2000/svg">
<path d="M12.5 1.6875C13.4766 1.6875 14.388 1.93164 15.2344 2.41992C16.0807 2.9082 16.748 3.57552 17.2363 4.42188C17.7246 5.26823 17.9688 6.17969 17.9688 7.15625C17.9688 8.13281 17.7246 9.04427 17.2363 9.89062C16.748 10.737 16.0807 11.4043 15.2344 11.8926C14.388 12.3809 13.4766 12.625 12.5 12.625C11.5234 12.625 10.612 12.3809 9.76562 11.8926C8.91927 11.4043 8.25195 10.737 7.76367 9.89062C7.27539 9.04427 7.03125 8.13281 7.03125 7.15625C7.03125 6.17969 7.27539 5.26823 7.76367 4.42188C8.25195 3.57552 8.91927 2.9082 9.76562 2.41992C10.612 1.93164 11.5234 1.6875 12.5 1.6875ZM18.75 17.3125C20.0521 17.3125 21.1589 17.7682 22.0703 18.6797C22.9818 19.5911 23.4375 20.6979 23.4375 22V23.5625H1.5625V22C1.5625 20.6979 2.01823 19.5911 2.92969 18.6797C3.84115 17.7682 4.94792 17.3125 6.25 17.3125C7.25911 17.3125 8.07292 17.3613 8.69141 17.459C9.08203 17.5241 9.52148 17.6217 10.0098 17.752C10.4004 17.8822 10.7096 17.9635 10.9375 17.9961C11.3607 18.0612 11.8815 18.0938 12.5 18.0938C13.1185 18.0938 13.6393 18.0612 14.0625 17.9961C14.2904 17.9635 14.6159 17.8822 15.0391 17.752C15.4948 17.6217 15.918 17.5241 16.3086 17.459C16.9271 17.3613 17.7409 17.3125 18.75 17.3125ZM12.5 0.125C11.2305 0.125 10.0586 0.450521 8.98438 1.10156C7.91016 1.72005 7.04753 2.56641 6.39648 3.64062C5.77799 4.71484 5.46875 5.88672 5.46875 7.15625C5.46875 8.42578 5.77799 9.59766 6.39648 10.6719C7.04753 11.7461 7.91016 12.6087 8.98438 13.2598C10.0586 13.8783 11.2305 14.1875 12.5 14.1875C13.7695 14.1875 14.9414 13.8783 16.0156 13.2598C17.0898 12.6087 17.9362 11.7461 18.5547 10.6719C19.2057 9.59766 19.5312 8.42578 19.5312 7.15625C19.5312 5.88672 19.2057 4.71484 18.5547 3.64062C17.9362 2.56641 17.0898 1.72005 16.0156 1.10156C14.9414 0.450521 13.7695 0.125 12.5 0.125ZM18.75 15.75C17.6432 15.75 16.748 15.7988 16.0645 15.8965C15.6738 15.9616 15.2344 16.0592 14.7461 16.1895C14.388 16.3197 14.0951 16.401 13.8672 16.4336C13.5091 16.4987 13.0534 16.5312 12.5 16.5312C11.9466 16.5312 11.4909 16.4987 11.1328 16.4336C10.9049 16.401 10.612 16.3197 10.2539 16.1895C9.76562 16.0592 9.32617 15.9616 8.93555 15.8965C8.25195 15.7988 7.34049 15.75 6.20117 15.75C5.0944 15.75 4.05273 16.0267 3.07617 16.5801C2.13216 17.1335 1.38346 17.8984 0.830078 18.875C0.276693 19.819 0 20.8607 0 22V23.5625C0 23.9857 0.146484 24.3438 0.439453 24.6367C0.764974 24.9622 1.13932 25.125 1.5625 25.125H23.4375C23.8607 25.125 24.2188 24.9622 24.5117 24.6367C24.8372 24.3438 25 23.9857 25 23.5625V22C25 20.8607 24.7233 19.819 24.1699 18.875C23.6165 17.8984 22.8516 17.1335 21.875 16.5801C20.931 16.0267 19.8893 15.75 18.75 15.75Z" fill="white"/>
</svg>
