<svg width="17" height="23" viewBox="0 0 17 23" fill="none" xmlns="http://www.w3.org/2000/svg">
<path d="M7.39062 22.3203C6.64583 21.2318 5.6862 19.8568 4.51172 18.1953C3.07943 16.1328 2.13411 14.7435 1.67578 14.0273C1.01693 12.9961 0.572917 12.1367 0.34375 11.4492C0.114583 10.7331 0 9.91667 0 9C0 7.51042 0.372396 6.13542 1.11719 4.875C1.86198 3.61458 2.86458 2.61198 4.125 1.86719C5.38542 1.1224 6.76042 0.75 8.25 0.75C9.73958 0.75 11.1146 1.1224 12.375 1.86719C13.6354 2.61198 14.638 3.61458 15.3828 4.875C16.1276 6.13542 16.5 7.51042 16.5 9C16.5 9.91667 16.3854 10.7331 16.1562 11.4492C15.9271 12.1367 15.4831 12.9961 14.8242 14.0273C14.3659 14.7435 13.4206 16.1328 11.9883 18.1953L9.10938 22.3203C8.90885 22.6068 8.6224 22.75 8.25 22.75C7.8776 22.75 7.59115 22.6068 7.39062 22.3203ZM8.25 12.4375C9.19531 12.4375 9.9974 12.1081 10.6562 11.4492C11.3438 10.7617 11.6875 9.94531 11.6875 9C11.6875 8.05469 11.3438 7.2526 10.6562 6.59375C9.9974 5.90625 9.19531 5.5625 8.25 5.5625C7.30469 5.5625 6.48828 5.90625 5.80078 6.59375C5.14193 7.2526 4.8125 8.05469 4.8125 9C4.8125 9.94531 5.14193 10.7617 5.80078 11.4492C6.48828 12.1081 7.30469 12.4375 8.25 12.4375Z" fill="#FD7590"/>
</svg>
