<svg width="22" height="23" viewBox="0 0 22 23" fill="none" xmlns="http://www.w3.org/2000/svg">
<path d="M7.91016 8.69531C7.51953 9.08594 7.71484 9.81836 8.25195 9.96484C8.34961 9.96484 8.98438 10.0137 9.76562 10.0137C11.084 9.96484 11.1328 9.96484 11.2793 9.86719C11.5234 9.7207 11.6699 9.52539 11.6699 9.23242C11.6699 8.89062 11.5234 8.69531 11.2305 8.54883C11.0352 8.45117 11.0352 8.45117 9.66797 8.45117C8.20312 8.45117 8.1543 8.5 7.91016 8.69531ZM10.8887 13.334C8.25195 13.334 8.20312 13.334 7.95898 13.5293C7.8125 13.6758 7.66602 13.9688 7.71484 14.2129C7.76367 14.457 7.95898 14.7012 8.1543 14.7988C8.25195 14.8477 8.83789 14.8965 10.9375 14.8477H13.2324L13.7207 14.75C14.1602 14.5059 14.209 13.9199 13.8672 13.5781C13.5742 13.334 13.623 13.334 10.8887 13.334ZM21.8262 19.6816C21.8262 19.3887 21.875 16.9961 21.8262 11.3809C21.8262 2.44531 21.875 3.27539 21.4844 2.54297C20.9961 1.61523 20.2148 0.980469 19.1895 0.785156C18.7988 0.6875 2.92969 0.6875 2.58789 0.785156C1.31836 1.0293 0.390625 1.95703 0.0488281 3.17773C0 3.51953 0 3.71484 0 11.6738C0 19.6816 0 19.7793 0.0488281 20.1211C0.146484 20.4629 0.390625 20.9512 0.537109 21.1953C0.732422 21.4395 1.12305 21.8301 1.36719 22.0254C1.70898 22.2207 2.05078 22.3672 2.49023 22.5137C2.7832 22.5625 3.17383 22.5625 10.8887 22.5625C18.8477 22.5625 18.9453 22.5625 19.3359 22.5137C20.7031 22.123 21.6309 21.0488 21.8262 19.6816ZM17.627 10.6484C17.7246 10.8926 17.7246 14.7012 17.5781 15.2383C17.334 15.9707 17.041 16.5566 16.5039 17.0938C15.7715 17.8262 14.9902 18.2168 14.0137 18.3633C13.4766 18.4609 7.95898 18.4121 7.4707 18.3633C6.15234 18.1191 4.83398 16.9961 4.3457 15.4824C4.15039 14.8965 4.10156 14.457 4.15039 11.3809C4.15039 8.93945 4.15039 8.5 4.24805 8.20703C4.58984 6.79102 5.51758 5.7168 6.83594 5.17969C7.56836 4.88672 8.00781 4.83789 10.1074 4.88672C11.4746 4.88672 11.8652 4.93555 12.0117 4.98438C12.793 5.17969 13.4277 5.61914 14.0137 6.20508C14.8438 7.03516 15.2344 7.96289 15.2344 8.93945C15.2344 9.47656 15.332 9.67188 15.625 9.86719C15.8203 9.96484 15.918 9.96484 16.5039 10.0137C16.8945 10.0137 17.2363 10.0625 17.2852 10.0625C17.4316 10.1602 17.5781 10.4043 17.627 10.6484Z" fill="#44566C"/>
</svg>
