<svg width="20" height="23" viewBox="0 0 20 23" fill="none" xmlns="http://www.w3.org/2000/svg">
<path d="M17.1875 3.5H15.125V1.26562C15.125 1.1224 15.0677 1.00781 14.9531 0.921875C14.8672 0.807292 14.7526 0.75 14.6094 0.75H14.2656C14.1224 0.75 13.9935 0.807292 13.8789 0.921875C13.793 1.00781 13.75 1.1224 13.75 1.26562V3.5H5.5V1.26562C5.5 1.1224 5.44271 1.00781 5.32812 0.921875C5.24219 0.807292 5.1276 0.75 4.98438 0.75H4.64062C4.4974 0.75 4.36849 0.807292 4.25391 0.921875C4.16797 1.00781 4.125 1.1224 4.125 1.26562V3.5H2.0625C1.48958 3.5 1.0026 3.70052 0.601562 4.10156C0.200521 4.5026 0 4.98958 0 5.5625V20.6875C0 21.2604 0.200521 21.7474 0.601562 22.1484C1.0026 22.5495 1.48958 22.75 2.0625 22.75H17.1875C17.7604 22.75 18.2474 22.5495 18.6484 22.1484C19.0495 21.7474 19.25 21.2604 19.25 20.6875V5.5625C19.25 4.98958 19.0495 4.5026 18.6484 4.10156C18.2474 3.70052 17.7604 3.5 17.1875 3.5ZM2.0625 4.875H17.1875C17.388 4.875 17.5456 4.94661 17.6602 5.08984C17.8034 5.20443 17.875 5.36198 17.875 5.5625V7.625H1.375V5.5625C1.375 5.36198 1.43229 5.20443 1.54688 5.08984C1.6901 4.94661 1.86198 4.875 2.0625 4.875ZM17.1875 21.375H2.0625C1.86198 21.375 1.6901 21.3034 1.54688 21.1602C1.43229 21.0456 1.375 20.888 1.375 20.6875V9H17.875V20.6875C17.875 20.888 17.8034 21.0456 17.6602 21.1602C17.5456 21.3034 17.388 21.375 17.1875 21.375ZM6.35938 14.5H4.64062C4.4974 14.5 4.36849 14.457 4.25391 14.3711C4.16797 14.2565 4.125 14.1276 4.125 13.9844V12.2656C4.125 12.1224 4.16797 12.0078 4.25391 11.9219C4.36849 11.8073 4.4974 11.75 4.64062 11.75H6.35938C6.5026 11.75 6.61719 11.8073 6.70312 11.9219C6.81771 12.0078 6.875 12.1224 6.875 12.2656V13.9844C6.875 14.1276 6.81771 14.2565 6.70312 14.3711C6.61719 14.457 6.5026 14.5 6.35938 14.5ZM10.4844 14.5H8.76562C8.6224 14.5 8.49349 14.457 8.37891 14.3711C8.29297 14.2565 8.25 14.1276 8.25 13.9844V12.2656C8.25 12.1224 8.29297 12.0078 8.37891 11.9219C8.49349 11.8073 8.6224 11.75 8.76562 11.75H10.4844C10.6276 11.75 10.7422 11.8073 10.8281 11.9219C10.9427 12.0078 11 12.1224 11 12.2656V13.9844C11 14.1276 10.9427 14.2565 10.8281 14.3711C10.7422 14.457 10.6276 14.5 10.4844 14.5ZM14.6094 14.5H12.8906C12.7474 14.5 12.6185 14.457 12.5039 14.3711C12.418 14.2565 12.375 14.1276 12.375 13.9844V12.2656C12.375 12.1224 12.418 12.0078 12.5039 11.9219C12.6185 11.8073 12.7474 11.75 12.8906 11.75H14.6094C14.7526 11.75 14.8672 11.8073 14.9531 11.9219C15.0677 12.0078 15.125 12.1224 15.125 12.2656V13.9844C15.125 14.1276 15.0677 14.2565 14.9531 14.3711C14.8672 14.457 14.7526 14.5 14.6094 14.5ZM10.4844 18.625H8.76562C8.6224 18.625 8.49349 18.582 8.37891 18.4961C8.29297 18.3815 8.25 18.2526 8.25 18.1094V16.3906C8.25 16.2474 8.29297 16.1328 8.37891 16.0469C8.49349 15.9323 8.6224 15.875 8.76562 15.875H10.4844C10.6276 15.875 10.7422 15.9323 10.8281 16.0469C10.9427 16.1328 11 16.2474 11 16.3906V18.1094C11 18.2526 10.9427 18.3815 10.8281 18.4961C10.7422 18.582 10.6276 18.625 10.4844 18.625ZM6.35938 18.625H4.64062C4.4974 18.625 4.36849 18.582 4.25391 18.4961C4.16797 18.3815 4.125 18.2526 4.125 18.1094V16.3906C4.125 16.2474 4.16797 16.1328 4.25391 16.0469C4.36849 15.9323 4.4974 15.875 4.64062 15.875H6.35938C6.5026 15.875 6.61719 15.9323 6.70312 16.0469C6.81771 16.1328 6.875 16.2474 6.875 16.3906V18.1094C6.875 18.2526 6.81771 18.3815 6.70312 18.4961C6.61719 18.582 6.5026 18.625 6.35938 18.625ZM14.6094 18.625H12.8906C12.7474 18.625 12.6185 18.582 12.5039 18.4961C12.418 18.3815 12.375 18.2526 12.375 18.1094V16.3906C12.375 16.2474 12.418 16.1328 12.5039 16.0469C12.6185 15.9323 12.7474 15.875 12.8906 15.875H14.6094C14.7526 15.875 14.8672 15.9323 14.9531 16.0469C15.0677 16.1328 15.125 16.2474 15.125 16.3906V18.1094C15.125 18.2526 15.0677 18.3815 14.9531 18.4961C14.8672 18.582 14.7526 18.625 14.6094 18.625Z" fill="#C17CEB"/>
</svg>
