<svg width="22" height="26" viewBox="0 0 22 26" fill="none" xmlns="http://www.w3.org/2000/svg">
<path d="M21.2891 7.9375C21.4518 7.9375 21.582 7.88867 21.6797 7.79102C21.8099 7.66081 21.875 7.51432 21.875 7.35156V5.39844C21.875 5.23568 21.8099 5.10547 21.6797 5.00781C21.582 4.8776 21.4518 4.8125 21.2891 4.8125H20.3125V3.25C20.3125 2.40365 20.0033 1.67122 19.3848 1.05273C18.7663 0.434245 18.0339 0.125 17.1875 0.125H3.125C2.27865 0.125 1.54622 0.434245 0.927734 1.05273C0.309245 1.67122 0 2.40365 0 3.25V22C0 22.8464 0.309245 23.5788 0.927734 24.1973C1.54622 24.8158 2.27865 25.125 3.125 25.125H17.1875C18.0339 25.125 18.7663 24.8158 19.3848 24.1973C20.0033 23.5788 20.3125 22.8464 20.3125 22V20.4375H21.2891C21.4518 20.4375 21.582 20.3887 21.6797 20.291C21.8099 20.1608 21.875 20.0143 21.875 19.8516V17.8984C21.875 17.7357 21.8099 17.6055 21.6797 17.5078C21.582 17.3776 21.4518 17.3125 21.2891 17.3125H20.3125V14.1875H21.2891C21.4518 14.1875 21.582 14.1387 21.6797 14.041C21.8099 13.9108 21.875 13.7643 21.875 13.6016V11.6484C21.875 11.4857 21.8099 11.3555 21.6797 11.2578C21.582 11.1276 21.4518 11.0625 21.2891 11.0625H20.3125V7.9375H21.2891ZM18.75 22C18.75 22.4232 18.5872 22.7812 18.2617 23.0742C17.9688 23.3997 17.6107 23.5625 17.1875 23.5625H3.125C2.70182 23.5625 2.32747 23.3997 2.00195 23.0742C1.70898 22.7812 1.5625 22.4232 1.5625 22V3.25C1.5625 2.82682 1.70898 2.46875 2.00195 2.17578C2.32747 1.85026 2.70182 1.6875 3.125 1.6875H17.1875C17.6107 1.6875 17.9688 1.85026 18.2617 2.17578C18.5872 2.46875 18.75 2.82682 18.75 3.25V22ZM10.1562 13.4062C11.2305 13.4062 12.1419 13.0319 12.8906 12.2832C13.6719 11.502 14.0625 10.5742 14.0625 9.5C14.0625 8.42578 13.6719 7.51432 12.8906 6.76562C12.1419 5.98438 11.2305 5.59375 10.1562 5.59375C9.08203 5.59375 8.1543 5.98438 7.37305 6.76562C6.62435 7.51432 6.25 8.42578 6.25 9.5C6.25 10.5742 6.62435 11.502 7.37305 12.2832C8.1543 13.0319 9.08203 13.4062 10.1562 13.4062ZM10.1562 7.15625C10.8073 7.15625 11.3607 7.38411 11.8164 7.83984C12.2721 8.29557 12.5 8.84896 12.5 9.5C12.5 10.151 12.2721 10.7044 11.8164 11.1602C11.3607 11.6159 10.8073 11.8438 10.1562 11.8438C9.50521 11.8438 8.95182 11.6159 8.49609 11.1602C8.04036 10.7044 7.8125 10.151 7.8125 9.5C7.8125 8.84896 8.04036 8.29557 8.49609 7.83984C8.95182 7.38411 9.50521 7.15625 10.1562 7.15625ZM12.4512 14.1875C12.1257 14.1875 11.7513 14.2526 11.3281 14.3828C10.9375 14.4805 10.5469 14.5293 10.1562 14.5293C9.76562 14.5293 9.35872 14.4805 8.93555 14.3828C8.54492 14.2526 8.18685 14.1875 7.86133 14.1875C7.34049 14.1875 6.83594 14.3014 6.34766 14.5293C5.89193 14.7572 5.51758 15.0827 5.22461 15.5059C4.86654 16.0592 4.6875 16.6777 4.6875 17.3613V19.2656C4.6875 19.3633 4.72005 19.4609 4.78516 19.5586C4.88281 19.6237 4.98047 19.6562 5.07812 19.6562H5.85938C5.95703 19.6562 6.03841 19.6237 6.10352 19.5586C6.20117 19.4609 6.25 19.3633 6.25 19.2656V17.3613C6.25 17.0033 6.34766 16.6777 6.54297 16.3848C6.83594 15.9616 7.27539 15.75 7.86133 15.75C8.02409 15.75 8.26823 15.7988 8.59375 15.8965C9.14714 16.0267 9.66797 16.0918 10.1562 16.0918C10.6445 16.0918 11.1654 16.0267 11.7188 15.8965C12.0443 15.7988 12.2884 15.75 12.4512 15.75C13.0371 15.75 13.4766 15.9616 13.7695 16.3848C13.9648 16.6777 14.0625 17.0033 14.0625 17.3613V19.2656C14.0625 19.3633 14.0951 19.4609 14.1602 19.5586C14.2578 19.6237 14.3555 19.6562 14.4531 19.6562H15.2344C15.3646 19.6562 15.4622 19.6237 15.5273 19.5586C15.5924 19.4609 15.625 19.3633 15.625 19.2656V17.3613C15.625 16.6777 15.446 16.0592 15.0879 15.5059C14.7949 15.0827 14.4043 14.7572 13.916 14.5293C13.4603 14.3014 12.972 14.1875 12.4512 14.1875Z" fill="#44566C"/>
</svg>
