<svg width="38" height="23" viewBox="0 0 38 23" fill="none" xmlns="http://www.w3.org/2000/svg">
<path d="M35.8594 5.77344L20.332 0.734375C19.2773 0.421875 18.2227 0.421875 17.168 0.734375L1.64062 5.77344C1.13281 5.92969 0.722656 6.22266 0.410156 6.65234C0.136719 7.04297 0 7.49219 0 8C0 8.50781 0.136719 8.97656 0.410156 9.40625C0.722656 9.79688 1.13281 10.0703 1.64062 10.2266L3.39844 10.8125C3.20312 11.1641 3.04688 11.5352 2.92969 11.9258C2.61719 12.082 2.36328 12.3164 2.16797 12.6289C1.97266 12.9414 1.875 13.2734 1.875 13.625C1.875 13.9766 1.97266 14.3086 2.16797 14.6211C2.36328 14.9336 2.61719 15.168 2.92969 15.3242L1.875 21.8867C1.83594 22.1602 1.875 22.4141 1.99219 22.6484C2.14844 22.8828 2.34375 23 2.57812 23H4.92188C5.15625 23 5.33203 22.8828 5.44922 22.6484C5.60547 22.4141 5.66406 22.1602 5.625 21.8867L4.57031 15.3242C4.88281 15.168 5.13672 14.9336 5.33203 14.6211C5.52734 14.3086 5.625 13.9766 5.625 13.625C5.625 13 5.37109 12.5117 4.86328 12.1602C4.94141 11.8867 5.05859 11.6328 5.21484 11.3984L8.37891 12.3945L7.5 19.25C7.5 19.9141 8.00781 20.5391 9.02344 21.125C10.0391 21.7109 11.4062 22.1797 13.125 22.5312C14.8438 22.8438 16.7188 23 18.75 23C20.7812 23 22.6562 22.8438 24.375 22.5312C26.0938 22.1797 27.4609 21.7109 28.4766 21.125C29.4922 20.5391 30 19.9141 30 19.25L29.1211 12.3945L35.8594 10.2266C36.3672 10.0703 36.7578 9.79688 37.0312 9.40625C37.3438 8.97656 37.5 8.50781 37.5 8C37.5 7.49219 37.3438 7.04297 37.0312 6.65234C36.7578 6.22266 36.3672 5.92969 35.8594 5.77344ZM28.0664 19.1328C27.6758 19.5625 26.7383 19.9727 25.2539 20.3633C23.3789 20.8711 21.2109 21.125 18.75 21.125C16.2891 21.125 14.1211 20.8711 12.2461 20.3633C10.7617 19.9727 9.82422 19.5625 9.43359 19.1328L10.1953 12.9805L17.168 15.2656C18.2227 15.6172 19.2773 15.6172 20.332 15.2656L27.3047 12.9805L28.0664 19.1328ZM35.2734 8.46875L19.7461 13.4492C19.082 13.6836 18.418 13.6836 17.7539 13.4492L7.44141 10.1094L18.9258 8C19.1602 7.96094 19.3555 7.84375 19.5117 7.64844C19.668 7.41406 19.7266 7.17969 19.6875 6.94531C19.6484 6.67187 19.5117 6.45703 19.2773 6.30078C19.043 6.14453 18.8086 6.08594 18.5742 6.125L6.62109 8.35156C5.95703 8.50781 5.3125 8.80078 4.6875 9.23047L2.22656 8.46875C1.99219 8.39062 1.875 8.23438 1.875 8C1.875 7.76562 1.99219 7.60937 2.22656 7.53125L17.7539 2.55078C18.418 2.31641 19.082 2.31641 19.7461 2.55078L35.2734 7.53125C35.5078 7.60937 35.625 7.76562 35.625 8C35.625 8.23438 35.5078 8.39062 35.2734 8.46875Z" fill="#F95054"/>
</svg>
