<svg width="30" height="27" viewBox="0 0 30 27" fill="none" xmlns="http://www.w3.org/2000/svg">
<path d="M27.1875 6.25H20.625V2.03125C20.625 1.64062 20.4883 1.30859 20.2148 1.03516C19.9414 0.761719 19.6094 0.625 19.2188 0.625H10.7812C10.3906 0.625 10.0586 0.761719 9.78516 1.03516C9.51172 1.30859 9.375 1.64062 9.375 2.03125V6.25H2.8125C2.03125 6.25 1.36719 6.52344 0.820312 7.07031C0.273438 7.61719 0 8.28125 0 9.0625V24.0625C0 24.8438 0.273438 25.5078 0.820312 26.0547C1.36719 26.6016 2.03125 26.875 2.8125 26.875H27.1875C27.9688 26.875 28.6328 26.6016 29.1797 26.0547C29.7266 25.5078 30 24.8438 30 24.0625V9.0625C30 8.28125 29.7266 7.61719 29.1797 7.07031C28.6328 6.52344 27.9688 6.25 27.1875 6.25ZM11.25 2.5H18.75V6.25H11.25V2.5ZM28.125 24.0625C28.125 24.3359 28.0273 24.5703 27.832 24.7656C27.6758 24.9219 27.4609 25 27.1875 25H2.8125C2.53906 25 2.30469 24.9219 2.10938 24.7656C1.95313 24.5703 1.875 24.3359 1.875 24.0625V15.625H11.25V17.9688C11.25 18.3594 11.3867 18.6914 11.6602 18.9648C11.9336 19.2383 12.2656 19.375 12.6562 19.375H17.3438C17.7344 19.375 18.0664 19.2383 18.3398 18.9648C18.6133 18.6914 18.75 18.3594 18.75 17.9688V15.625H28.125V24.0625ZM13.125 17.5V15.625H16.875V17.5H13.125ZM28.125 13.75H1.875V9.0625C1.875 8.78906 1.95313 8.57422 2.10938 8.41797C2.30469 8.22266 2.53906 8.125 2.8125 8.125H27.1875C27.4609 8.125 27.6758 8.22266 27.832 8.41797C28.0273 8.57422 28.125 8.78906 28.125 9.0625V13.75Z" fill="#F95054"/>
</svg>
