<svg width="19" height="19" viewBox="0 0 19 19" fill="none" xmlns="http://www.w3.org/2000/svg">
<path d="M9.75 5.00781C7.25 5.00781 5.25781 7.03906 5.25781 9.5C5.25781 12 7.25 13.9922 9.75 13.9922C12.2109 13.9922 14.2422 12 14.2422 9.5C14.2422 7.03906 12.2109 5.00781 9.75 5.00781ZM9.75 12.4297C8.14844 12.4297 6.82031 11.1406 6.82031 9.5C6.82031 7.89844 8.10938 6.60938 9.75 6.60938C11.3516 6.60938 12.6406 7.89844 12.6406 9.5C12.6406 11.1406 11.3516 12.4297 9.75 12.4297ZM15.4531 4.85156C15.4531 4.26562 14.9844 3.79688 14.3984 3.79688C13.8125 3.79688 13.3438 4.26562 13.3438 4.85156C13.3438 5.4375 13.8125 5.90625 14.3984 5.90625C14.9844 5.90625 15.4531 5.4375 15.4531 4.85156ZM18.4219 5.90625C18.3438 4.5 18.0312 3.25 17.0156 2.23438C16 1.21875 14.75 0.90625 13.3438 0.828125C11.8984 0.75 7.5625 0.75 6.11719 0.828125C4.71094 0.90625 3.5 1.21875 2.44531 2.23438C1.42969 3.25 1.11719 4.5 1.03906 5.90625C0.960938 7.35156 0.960938 11.6875 1.03906 13.1328C1.11719 14.5391 1.42969 15.75 2.44531 16.8047C3.5 17.8203 4.71094 18.1328 6.11719 18.2109C7.5625 18.2891 11.8984 18.2891 13.3438 18.2109C14.75 18.1328 16 17.8203 17.0156 16.8047C18.0312 15.75 18.3438 14.5391 18.4219 13.1328C18.5 11.6875 18.5 7.35156 18.4219 5.90625ZM16.5469 14.6562C16.2734 15.4375 15.6484 16.0234 14.9062 16.3359C13.7344 16.8047 11 16.6875 9.75 16.6875C8.46094 16.6875 5.72656 16.8047 4.59375 16.3359C3.8125 16.0234 3.22656 15.4375 2.91406 14.6562C2.44531 13.5234 2.5625 10.7891 2.5625 9.5C2.5625 8.25 2.44531 5.51562 2.91406 4.34375C3.22656 3.60156 3.8125 3.01562 4.59375 2.70312C5.72656 2.23438 8.46094 2.35156 9.75 2.35156C11 2.35156 13.7344 2.23438 14.9062 2.70312C15.6484 2.97656 16.2344 3.60156 16.5469 4.34375C17.0156 5.51562 16.8984 8.25 16.8984 9.5C16.8984 10.7891 17.0156 13.5234 16.5469 14.6562Z" fill="url(#paint0_linear_3110_319)"/>
<defs>
<linearGradient id="paint0_linear_3110_319" x1="10" y1="-2" x2="10" y2="21" gradientUnits="userSpaceOnUse">
<stop stop-color="#515ECF"/>
<stop offset="0.369792" stop-color="#C53184"/>
<stop offset="0.75" stop-color="#F3673A"/>
<stop offset="1" stop-color="#DB2E7A"/>
</linearGradient>
</defs>
</svg>
