<svg width="22" height="23" viewBox="0 0 22 23" fill="none" xmlns="http://www.w3.org/2000/svg">
<path d="M15.125 11.4062V10.7188C15.125 10.6328 15.082 10.5612 14.9961 10.5039C14.9388 10.418 14.8672 10.375 14.7812 10.375H7.21875C7.13281 10.375 7.04688 10.418 6.96094 10.5039C6.90365 10.5612 6.875 10.6328 6.875 10.7188V11.4062C6.875 11.4922 6.90365 11.5781 6.96094 11.6641C7.04688 11.7214 7.13281 11.75 7.21875 11.75H14.7812C14.8672 11.75 14.9388 11.7214 14.9961 11.6641C15.082 11.5781 15.125 11.4922 15.125 11.4062ZM7.21875 9H14.7812C14.8672 9 14.9388 8.97135 14.9961 8.91406C15.082 8.82812 15.125 8.74219 15.125 8.65625V7.96875C15.125 7.88281 15.082 7.8112 14.9961 7.75391C14.9388 7.66797 14.8672 7.625 14.7812 7.625H7.21875C7.13281 7.625 7.04688 7.66797 6.96094 7.75391C6.90365 7.8112 6.875 7.88281 6.875 7.96875V8.65625C6.875 8.74219 6.90365 8.82812 6.96094 8.91406C7.04688 8.97135 7.13281 9 7.21875 9ZM21.2695 7.83984C21.1549 7.75391 20.4818 7.20964 19.25 6.20703V4.875C19.25 4.5026 19.1068 4.1875 18.8203 3.92969C18.5625 3.64323 18.2474 3.5 17.875 3.5H15.8984L14.9961 2.76953C14.2799 2.16797 13.6927 1.72396 13.2344 1.4375C12.4323 0.979167 11.6875 0.75 11 0.75C10.3125 0.75 9.56771 0.979167 8.76562 1.4375C8.33594 1.72396 7.7487 2.16797 7.00391 2.76953L6.10156 3.5H4.125C3.7526 3.5 3.42318 3.64323 3.13672 3.92969C2.87891 4.1875 2.75 4.5026 2.75 4.875V6.20703L0.773438 7.79688C0.257812 8.22656 0 8.75651 0 9.38672V20.6875C0 21.2604 0.200521 21.7474 0.601562 22.1484C1.0026 22.5495 1.48958 22.75 2.0625 22.75H19.9375C20.5104 22.75 20.9974 22.5495 21.3984 22.1484C21.7995 21.7474 22 21.2604 22 20.6875V9.42969C22 8.77083 21.7565 8.24089 21.2695 7.83984ZM11 2.125C11.6875 2.125 12.5898 2.58333 13.707 3.5H8.29297C9.41016 2.58333 10.3125 2.125 11 2.125ZM4.125 4.875H17.875V12.3086L13.75 15.6602C13.1771 16.1471 12.7188 16.4909 12.375 16.6914C11.8307 17.0638 11.3724 17.25 11 17.25C10.6276 17.25 10.1693 17.0638 9.625 16.6914C9.28125 16.4909 8.82292 16.1471 8.25 15.6602L4.125 12.3086V4.875ZM1.375 9.38672C1.375 9.1862 1.46094 9.01432 1.63281 8.87109L2.75 7.96875V11.2344L1.375 10.1172V9.38672ZM20.625 20.6875C20.625 20.888 20.5534 21.0456 20.4102 21.1602C20.2956 21.3034 20.138 21.375 19.9375 21.375H2.0625C1.86198 21.375 1.6901 21.3034 1.54688 21.1602C1.43229 21.0456 1.375 20.888 1.375 20.6875V11.8789L7.43359 16.7344C8.09245 17.3073 8.63672 17.7227 9.06641 17.9805C9.78255 18.4102 10.4271 18.625 11 18.625C11.5729 18.625 12.2174 18.4102 12.9336 17.9805C13.3346 17.7227 13.8789 17.3073 14.5664 16.7344L20.625 11.8789V20.6875ZM20.625 10.1172C20.4818 10.2318 20.2669 10.4036 19.9805 10.6328L19.25 11.2344V7.96875L20.3672 8.87109C20.5391 9.01432 20.625 9.20052 20.625 9.42969V10.1172Z" fill="#6AB5B9"/>
</svg>
