<svg width="14" height="23" viewBox="0 0 14 23" fill="none" xmlns="http://www.w3.org/2000/svg">
<path d="M11.6875 0.75H2.0625C1.48958 0.75 1.0026 0.950521 0.601562 1.35156C0.200521 1.7526 0 2.23958 0 2.8125V20.6875C0 21.2604 0.200521 21.7474 0.601562 22.1484C1.0026 22.5495 1.48958 22.75 2.0625 22.75H11.6875C12.2604 22.75 12.7474 22.5495 13.1484 22.1484C13.5495 21.7474 13.75 21.2604 13.75 20.6875V2.8125C13.75 2.23958 13.5495 1.7526 13.1484 1.35156C12.7474 0.950521 12.2604 0.75 11.6875 0.75ZM6.875 21.375C6.5026 21.375 6.17318 21.2318 5.88672 20.9453C5.62891 20.6875 5.5 20.3724 5.5 20C5.5 19.6276 5.62891 19.3125 5.88672 19.0547C6.17318 18.7682 6.5026 18.625 6.875 18.625C7.2474 18.625 7.5625 18.7682 7.82031 19.0547C8.10677 19.3125 8.25 19.6276 8.25 20C8.25 20.3724 8.10677 20.6875 7.82031 20.9453C7.5625 21.2318 7.2474 21.375 6.875 21.375ZM11.6875 16.7344C11.6875 16.8776 11.6302 17.0065 11.5156 17.1211C11.4297 17.207 11.3151 17.25 11.1719 17.25H2.57812C2.4349 17.25 2.30599 17.207 2.19141 17.1211C2.10547 17.0065 2.0625 16.8776 2.0625 16.7344V3.32812C2.0625 3.1849 2.10547 3.07031 2.19141 2.98438C2.30599 2.86979 2.4349 2.8125 2.57812 2.8125H11.1719C11.3151 2.8125 11.4297 2.86979 11.5156 2.98438C11.6302 3.07031 11.6875 3.1849 11.6875 3.32812V16.7344Z" fill="#E93B81"/>
</svg>
