<svg width="19" height="26" viewBox="0 0 19 26" fill="none" xmlns="http://www.w3.org/2000/svg">
<path d="M18.0664 4.91016L13.9648 0.808594C13.5091 0.352865 12.9557 0.125 12.3047 0.125H2.34375C1.69271 0.125 1.13932 0.352865 0.683594 0.808594C0.227865 1.26432 0 1.81771 0 2.46875V22.7812C0 23.4323 0.227865 23.9857 0.683594 24.4414C1.13932 24.8971 1.69271 25.125 2.34375 25.125H16.4062C17.0573 25.125 17.6107 24.8971 18.0664 24.4414C18.5221 23.9857 18.75 23.4323 18.75 22.7812V6.57031C18.75 5.91927 18.5221 5.36589 18.0664 4.91016ZM16.9434 6.0332C17.041 6.13086 17.1224 6.24479 17.1875 6.375H12.5V1.6875C12.6302 1.7526 12.7441 1.83398 12.8418 1.93164L16.9434 6.0332ZM16.4062 23.5625H2.34375C2.11589 23.5625 1.92057 23.4811 1.75781 23.3184C1.6276 23.1882 1.5625 23.0091 1.5625 22.7812V2.46875C1.5625 2.24089 1.6276 2.06185 1.75781 1.93164C1.92057 1.76888 2.11589 1.6875 2.34375 1.6875H10.9375V6.76562C10.9375 7.09115 11.0514 7.36784 11.2793 7.5957C11.5072 7.82357 11.7839 7.9375 12.1094 7.9375H17.1875V22.7812C17.1875 23.0091 17.1061 23.1882 16.9434 23.3184C16.8132 23.4811 16.6341 23.5625 16.4062 23.5625ZM14.0625 11.6484V12.0391C14.0625 12.2018 13.9974 12.3483 13.8672 12.4785C13.7695 12.5762 13.6393 12.625 13.4766 12.625H5.27344C5.11068 12.625 4.96419 12.5762 4.83398 12.4785C4.73633 12.3483 4.6875 12.2018 4.6875 12.0391V11.6484C4.6875 11.4857 4.73633 11.3555 4.83398 11.2578C4.96419 11.1276 5.11068 11.0625 5.27344 11.0625H13.4766C13.6393 11.0625 13.7695 11.1276 13.8672 11.2578C13.9974 11.3555 14.0625 11.4857 14.0625 11.6484ZM14.0625 14.7734V15.1641C14.0625 15.3268 13.9974 15.4733 13.8672 15.6035C13.7695 15.7012 13.6393 15.75 13.4766 15.75H5.27344C5.11068 15.75 4.96419 15.7012 4.83398 15.6035C4.73633 15.4733 4.6875 15.3268 4.6875 15.1641V14.7734C4.6875 14.6107 4.73633 14.4805 4.83398 14.3828C4.96419 14.2526 5.11068 14.1875 5.27344 14.1875H13.4766C13.6393 14.1875 13.7695 14.2526 13.8672 14.3828C13.9974 14.4805 14.0625 14.6107 14.0625 14.7734ZM14.0625 17.8984V18.2891C14.0625 18.4518 13.9974 18.5983 13.8672 18.7285C13.7695 18.8262 13.6393 18.875 13.4766 18.875H5.27344C5.11068 18.875 4.96419 18.8262 4.83398 18.7285C4.73633 18.5983 4.6875 18.4518 4.6875 18.2891V17.8984C4.6875 17.7357 4.73633 17.6055 4.83398 17.5078C4.96419 17.3776 5.11068 17.3125 5.27344 17.3125H13.4766C13.6393 17.3125 13.7695 17.3776 13.8672 17.5078C13.9974 17.6055 14.0625 17.7357 14.0625 17.8984Z" fill="#44566C"/>
</svg>
